<svg width="33" height="34" viewBox="0 0 33 34" fill="none" xmlns="http://www.w3.org/2000/svg">
<path d="M8.67316 30.0429C7.97855 30.0429 7.39062 29.7983 6.90938 29.3093C6.42813 28.8202 6.1875 28.2227 6.1875 27.5168V6.0194C6.1875 5.3135 6.42813 4.71602 6.90938 4.22695C7.39062 3.73788 7.97855 3.49335 8.67316 3.49335H24.3268C25.0214 3.49335 25.6094 3.73788 26.0906 4.22695C26.5719 4.71602 26.8125 5.3135 26.8125 6.0194V27.5168C26.8125 28.2227 26.5719 28.8202 26.0906 29.3093C25.6094 29.7983 25.0214 30.0429 24.3268 30.0429H8.67316ZM8.67316 27.9469H24.3268C24.4327 27.9469 24.5297 27.902 24.6177 27.8124C24.7059 27.7229 24.75 27.6244 24.75 27.5168V6.0194C24.75 5.9118 24.7059 5.81329 24.6177 5.72386C24.5297 5.63419 24.4327 5.58936 24.3268 5.58936H22V14.7528L18.9062 12.8716L15.8125 14.7528V5.58936H8.67316C8.56728 5.58936 8.47034 5.63419 8.38234 5.72386C8.29411 5.81329 8.25 5.9118 8.25 6.0194V27.5168C8.25 27.6244 8.29411 27.7229 8.38234 27.8124C8.47034 27.902 8.56728 27.9469 8.67316 27.9469Z" fill="#4A0E1D"/>
</svg>
