<svg width="30" height="30" viewBox="0 0 30 30" fill="none" xmlns="http://www.w3.org/2000/svg">
<mask id="mask0_929_107" style="mask-type:alpha" maskUnits="userSpaceOnUse" x="0" y="0" width="30" height="30">
<rect width="30" height="30" fill="#D9D9D9"/>
</mask>
<g mask="url(#mask0_929_107)">
<path d="M7.3125 23L4.3125 26C3.79167 26.5208 3.19271 26.6354 2.51562 26.3438C1.83854 26.0521 1.5 25.5417 1.5 24.8125V4.4375C1.5 3.52083 1.82292 2.73958 2.46875 2.09375C3.11458 1.44792 3.89583 1.125 4.8125 1.125H25.1875C26.1042 1.125 26.8854 1.44792 27.5312 2.09375C28.1771 2.73958 28.5 3.52083 28.5 4.4375V19.6875C28.5 20.6042 28.1771 21.3854 27.5312 22.0313C26.8854 22.6771 26.1042 23 25.1875 23H7.3125ZM10.8906 13.0781C11.1719 12.7969 11.3125 12.4583 11.3125 12.0625C11.3125 11.6667 11.1719 11.3281 10.8906 11.0469C10.6094 10.7656 10.2708 10.625 9.875 10.625C9.47917 10.625 9.14063 10.7656 8.85938 11.0469C8.57813 11.3281 8.4375 11.6667 8.4375 12.0625C8.4375 12.4583 8.57813 12.7969 8.85938 13.0781C9.14063 13.3594 9.47917 13.5 9.875 13.5C10.2708 13.5 10.6094 13.3594 10.8906 13.0781ZM16.0156 13.0781C16.2969 12.7969 16.4375 12.4583 16.4375 12.0625C16.4375 11.6667 16.2969 11.3281 16.0156 11.0469C15.7344 10.7656 15.3958 10.625 15 10.625C14.6042 10.625 14.2656 10.7656 13.9844 11.0469C13.7031 11.3281 13.5625 11.6667 13.5625 12.0625C13.5625 12.4583 13.7031 12.7969 13.9844 13.0781C14.2656 13.3594 14.6042 13.5 15 13.5C15.3958 13.5 15.7344 13.3594 16.0156 13.0781ZM21.1406 13.0781C21.4219 12.7969 21.5625 12.4583 21.5625 12.0625C21.5625 11.6667 21.4219 11.3281 21.1406 11.0469C20.8594 10.7656 20.5208 10.625 20.125 10.625C19.7292 10.625 19.3906 10.7656 19.1094 11.0469C18.8281 11.3281 18.6875 11.6667 18.6875 12.0625C18.6875 12.4583 18.8281 12.7969 19.1094 13.0781C19.3906 13.3594 19.7292 13.5 20.125 13.5C20.5208 13.5 20.8594 13.3594 21.1406 13.0781Z" fill="#FF4A75"/>
</g>
</svg>
